<svg width="405" height="202" fill="none" xmlns="http://www.w3.org/2000/svg"><path d="M390.79 66.451c5.396 0 10.253 1.261 14.21 3.784l-4.677 18.018c-3.597-1.622-7.195-2.703-11.511-2.703-12.591 0-22.124 9.73-22.124 25.946v50.45h-19.786V68.613h19.786v12.973c5.396-10.99 14.389-15.135 24.102-15.135zM297.824 46.27v-1.26c0-6.847 5.576-11.352 12.771-11.352 7.195 0 12.591 4.505 12.591 11.352v1.26c0 6.847-5.396 11.352-12.591 11.352-7.195 0-12.771-4.505-12.771-11.351zm2.878 22.343h19.786v93.332h-19.786V68.613zm-67.83 95.497c-25.721 0-46.046-17.298-46.046-46.487v-81.8h19.786v44.143c6.475-8.108 17.087-13.513 29.678-13.513 24.102 0 43.348 19.099 43.348 45.945v5.946c0 26.486-19.606 45.766-46.766 45.766zm.36-17.658c16.188 0 26.621-11.531 26.621-28.468v-4.865c0-17.658-10.433-29.009-26.621-29.009s-26.62 11.351-26.62 29.009v4.865c0 17.297 10.432 28.468 26.62 28.468z" fill="#fff"/><path fill-rule="evenodd" clip-rule="evenodd" d="M66.746 15.978c-1.03-1.768-3.583-1.768-4.612 0l-17.62 30.258a2.669 2.669 0 00-.006 2.675l17.613 30.56c1.026 1.78 3.598 1.78 4.624 0l17.62-30.572a2.669 2.669 0 00-.006-2.675L66.746 15.978zM20.678 95.14c-2.059 0-3.342-2.233-2.306-4.012l16.337-28.055c1.032-1.773 3.595-1.767 4.619.01l16.17 28.055c1.025 1.78-.26 4.002-2.313 4.002H20.678zm-.09 11.564c-2.06 0-3.343 2.233-2.307 4.012l16.43 28.216c1.033 1.772 3.595 1.766 4.62-.011l16.261-28.215c1.026-1.779-.258-4.002-2.312-4.002H20.587zm55.006 0c-2.054 0-3.338 2.223-2.312 4.002l16.265 28.22c1.024 1.777 3.586 1.783 4.618.011l16.434-28.221c1.036-1.779-.248-4.012-2.307-4.012H75.594zm32.608-11.564c2.058 0 3.342-2.233 2.306-4.012L94.164 63.06c-1.032-1.773-3.595-1.767-4.619.01L73.37 91.138c-1.026 1.78.258 4.002 2.312 4.002h32.521zm-41.456 90.882c-1.03 1.768-3.583 1.768-4.612 0l-17.618-30.253a2.67 2.67 0 01-.006-2.676l17.615-30.561c1.026-1.782 3.597-1.782 4.624 0l17.617 30.566a2.67 2.67 0 01-.006 2.676l-17.614 30.248zM54.83 5.538c4.29-7.366 14.93-7.366 19.22 0l52.331 89.866a11.12 11.12 0 010 11.192l-52.332 89.866c-4.289 7.366-14.93 7.366-19.219 0L2.5 106.596a11.12 11.12 0 010-11.192L54.83 5.538z" fill="#fff"/></svg>
